Coordinates
version=1
nRows=5
nColumns=40
inDegrees=yes

Units are S.I. units (second, meters, Newtons, ...)
Angles are in degrees.

endheader
time	pelvis_tilt	pelvis_list	pelvis_rotation	pelvis_tx	pelvis_ty	pelvis_tz	hip_flexion_r	hip_adduction_r	hip_rotation_r	knee_angle_r	knee_angle_r_beta	ankle_angle_r	subtalar_angle_r	mtp_angle_r	hip_flexion_l	hip_adduction_l	hip_rotation_l	knee_angle_l	knee_angle_l_beta	ankle_angle_l	subtalar_angle_l	mtp_angle_l	lumbar_extension	lumbar_bending	lumbar_rotation	arm_flex_r	arm_add_r	arm_rot_r	elbow_flex_r	pro_sup_r	wrist_flex_r	wrist_dev_r	arm_flex_l	arm_add_l	arm_rot_l	elbow_flex_l	pro_sup_l	wrist_flex_l	wrist_dev_l
     14.39664286	     -4.07773058	     -3.66391810	     -4.13710249	      0.92704989	      0.91915944	      0.44310202	     27.17638990	      0.03955907	    -13.31552713	     14.79655864	     14.79655864	      2.83747407	      5.12044608	      6.89098012	      1.15830711	     -5.67801842	     -8.75384504	     16.98094141	     16.98094141	     19.60357259	    -12.80646197	     -0.56910022	    -10.71682344	      5.70164631	      1.96113732	     -0.83458274	    -16.64490110	    -10.30475816	     24.06473422	     47.55328489	      0.00000000	      0.00000000	     -3.77492518	    -11.60041283	     -7.44398788	     68.44039680	     46.71519054	      0.00000000	      0.00000000
     14.40828571	     -4.02974393	     -3.74337186	     -4.15573532	      0.92961576	      0.91722265	      0.44590355	     26.67397580	      0.42590141	    -13.36124625	     14.68645673	     14.68645673	      1.09678779	      4.76348269	      2.08475953	      0.92633951	     -6.01529658	     -8.78502276	     18.11079146	     18.11079146	     21.45115449	    -12.36173024	      2.19445897	    -10.51785843	      5.76234087	      2.25176769	     -1.09733961	    -16.39080616	    -11.47956723	     24.56542612	     47.55324228	      0.00000000	      0.00000000	     -3.69840570	    -11.22552501	     -7.47567577	     67.77931947	     46.77572984	      0.00000000	      0.00000000
     14.41992857	     -4.01204390	     -3.94658632	     -4.17267452	      0.93187329	      0.91541076	      0.44879863	     26.50550490	      0.84887364	    -13.27713238	     15.43194332	     15.43194332	      0.76032621	      4.18385290	      0.82253957	      0.86037808	     -6.47307913	     -8.51468855	     19.33750587	     19.33750587	     21.85306263	    -13.05093495	      2.12327956	    -10.33604240	      5.94186097	      2.36144806	     -0.88727935	    -16.29235762	    -11.70357366	     24.60928833	     47.54845190	      0.00000000	      0.00000000	     -3.85884421	    -10.98467110	     -7.47458723	     67.47985347	     46.78878430	      0.00000000	      0.00000000
     14.43157143	     -3.85209033	     -4.22721733	     -4.18768151	      0.93411213	      0.91408606	      0.45186622	     26.25580939	      1.29713041	    -13.17922145	     16.48287821	     16.48287821	      0.73342081	      3.68315632	      0.01635445	      0.76588496	     -7.03880001	     -8.22678338	     20.80259690	     20.80259690	     22.11402674	    -13.83619464	      1.97474784	    -10.40625565	      6.14441041	      2.51581503	     -0.57799618	    -16.21991278	    -11.76095849	     24.70816465	     47.54413064	      0.00000000	      0.00000000	     -3.94882193	    -10.73499116	     -7.50171732	     67.18200686	     46.79112509	      0.00000000	      0.00000000
     14.44321429	     -3.85295675	     -4.39085685	     -4.23197248	      0.93609202	      0.91274969	      0.45494961	     26.21997090	      1.74186088	    -12.40393470	     17.51831144	     17.51831144	     -0.05682395	      1.90596660	     -3.10259238	      1.19773460	     -7.52136949	     -7.90751671	     22.87461088	     22.87461088	     22.31740018	    -14.84743763	      2.27567409	    -10.20641593	      6.32880298	      2.65320664	     -0.22656068	    -15.95122145	    -12.07131901	     24.82021338	     47.52586641	      0.00000000	      0.00000000	     -3.90018657	    -10.22478183	     -8.11116873	     65.92060132	     46.84453819	      0.00000000	      0.00000000
